<?xml version="1.0" encoding="UTF-8" standalone="no"?>
<!-- Created with Inkscape (http://www.inkscape.org/) -->

<svg
   width="150mm"
   height="100mm"
   viewBox="0 0 150 100"
   version="1.1"
   id="svg1"
   inkscape:version="1.3.2 (091e20e, 2023-11-25, custom)"
   sodipodi:docname="20 - spiral.svg"
   xmlns:inkscape="http://www.inkscape.org/namespaces/inkscape"
   xmlns:sodipodi="http://sodipodi.sourceforge.net/DTD/sodipodi-0.dtd"
   xmlns="http://www.w3.org/2000/svg"
   xmlns:svg="http://www.w3.org/2000/svg">
  <sodipodi:namedview
     id="namedview1"
     pagecolor="#ffffff"
     bordercolor="#000000"
     borderopacity="0.25"
     inkscape:showpageshadow="2"
     inkscape:pageopacity="0.0"
     inkscape:pagecheckerboard="0"
     inkscape:deskcolor="#d1d1d1"
     inkscape:document-units="mm"
     inkscape:zoom="0.73139029"
     inkscape:cx="397.87239"
     inkscape:cy="561.25984"
     inkscape:window-width="1920"
     inkscape:window-height="1017"
     inkscape:window-x="-8"
     inkscape:window-y="-8"
     inkscape:window-maximized="1"
     inkscape:current-layer="layer1" />
  <defs
     id="defs1" />
  <g
     inkscape:label="Ebene 1"
     inkscape:groupmode="layer"
     id="layer1">
    <path
       sodipodi:type="spiral"
       style="fill:none;fill-rule:evenodd;stroke:#000000;stroke-width:4.43263756;stroke-dasharray:none"
       id="path1"
       sodipodi:cx="79.947624"
       sodipodi:cy="41.601704"
       sodipodi:expansion="1"
       sodipodi:revolution="3.7182777"
       sodipodi:radius="54.39304"
       sodipodi:argument="-16.215862"
       sodipodi:t0="0"
       d="m 79.947624,41.601704 c -1.922603,1.070127 -2.391055,-2.063667 -1.778622,-3.195493 1.659654,-3.067176 6.003502,-2.398903 8.169607,-0.361752 3.874652,3.643984 2.668963,9.897141 -1.055117,13.143721 -5.465239,4.764488 -13.849441,2.963192 -18.117837,-2.471986 -5.689101,-7.244238 -3.268686,-17.823329 3.888857,-23.091952 9.007037,-6.630024 21.807693,-3.580206 28.066066,5.305727 7.579732,10.762055 3.895252,25.797996 -6.722596,33.040181 C 79.885215,72.504813 62.605974,68.182666 54.383686,55.830683 44.890729,41.569831 49.852425,22.04219 63.940022,12.842273 79.947244,2.3887436 101.72674,7.9912343 111.90255,23.815479 123.31827,41.56789 117.07411,65.601683 99.512471,76.752119 80.015721,89.131215 53.725828,82.244772 41.601717,62.945173 28.258345,41.704712 35.787548,13.157358 56.825532,0.06030417 79.809224,-14.248037 110.6151,-6.0757159 124.68452,16.700989 c 13.10269,21.21169 8.72358,49.368353 -9.39665,66.248865"
       transform="matrix(0.88950918,0,0,0.87250354,0.37416894,16.234991)" />
  </g>
</svg>
